<svg xmlns="http://www.w3.org/2000/svg" version="1.1" x="0" y="0" width="212.1" height="38.3" viewBox="0 0 212.1 38.3" xml:space="preserve"><style type="text/css">
	.st0{fill-rule:evenodd;clip-rule:evenodd;}
</style><path d="M7.8 36.4v-2.5L7 35.7l-0.8-1.8v2.5H5.5v-3.8h0.7L7 34.3l0.8-1.7h0.7v3.8H7.8zM13.1 33.2v3.2h-0.7v-3.2h-0.8v-0.6h2.3v0.6H13.1zM15.2 33.2c-0.5 0-0.8 0.6-0.8 1.4 0 0.8 0.3 1.3 0.8 1.3 0.5 0 0.8-0.5 0.8-1.3C16 33.7 15.7 33.2 15.2 33.2zM15.2 36.5c-1.1 0-1.5-0.9-1.5-2 0-1.1 0.5-2 1.5-2 1.1 0 1.5 0.9 1.5 2C16.7 35.6 16.3 36.5 15.2 36.5zM21 36.4c-0.9 0-1.2-0.5-1.2-1.3h0.6c0 0.3 0.2 0.7 0.6 0.7 0.3 0 0.5-0.2 0.5-0.4 0-0.2-0.2-0.4-0.9-0.8 -0.5-0.3-0.9-0.6-0.9-1.1 0-0.6 0.4-1 1.2-1 0.8 0 1.2 0.5 1.2 1.2h-0.7c0-0.3-0.2-0.6-0.5-0.6 -0.3 0-0.5 0.1-0.5 0.4 0 0.2 0.2 0.4 0.7 0.7 0.6 0.3 1 0.6 1 1.2C22.2 36 21.7 36.4 21 36.4zM20 31.1c-0.9 0-1.2-0.5-1.2-1.3h0.6c0 0.3 0.2 0.7 0.6 0.7 0.3 0 0.5-0.2 0.5-0.4 0-0.2-0.2-0.4-0.9-0.8 -0.5-0.3-0.8-0.6-0.8-1.1 0-0.6 0.4-1 1.2-1 0.9 0 1.2 0.5 1.2 1.2h-0.6c0-0.3-0.2-0.6-0.5-0.6 -0.3 0-0.5 0.1-0.5 0.4 0 0.2 0.2 0.4 0.7 0.7 0.6 0.3 1 0.6 1 1.2C21.2 30.7 20.7 31.1 20 31.1zM25 31.1v-3.8h0.7v3.8H25zM17.7 31.1v-3.8h0.7v3.8H17.7zM19 36.4l-1.1-2h0.2c0.2 0 0.6-0.1 0.6-0.6 0-0.5-0.4-0.6-0.7-0.6h-0.4v3.2H17v-3.8h1.3c0.7 0 1.3 0.4 1.3 1.1 0 0.7-0.4 1-0.6 1.1l1 1.7H19zM10.3 33.2c-0.5 0-0.8 0.6-0.8 1.4 0 0.8 0.3 1.3 0.8 1.3 0.5 0 0.8-0.5 0.8-1.3C11.1 33.7 10.8 33.2 10.3 33.2zM10.3 36.5c-1.1 0-1.5-0.9-1.5-2 0-1.1 0.5-2 1.5-2 1.1 0 1.5 0.9 1.5 2C11.8 35.6 11.3 36.5 10.3 36.5zM23.7 31.1v-1.7h-1.4v1.7h-0.7v-3.8h0.7v1.5h1.4v-1.5h0.7v3.8H23.7zM15.9 29.4h-0.3v-0.6h0.3c0.3 0 0.5-0.1 0.5-0.5 0-0.3-0.2-0.5-0.5-0.5h-0.5v2.6H16c0.4 0 0.6-0.2 0.6-0.6C16.6 29.5 16.4 29.4 15.9 29.4zM16.1 31.1h-1.4v-3.8H16c0.7 0 1.2 0.3 1.2 1 0 0.5-0.4 0.8-0.5 0.8 0.2 0.1 0.7 0.3 0.7 1C17.3 30.6 16.8 31.1 16.1 31.1zM13.1 31.1c-0.6 0-1.3-0.2-1.3-1.3v-2.6h0.7v2.6c0 0.4 0.2 0.6 0.6 0.6 0.4 0 0.6-0.2 0.6-0.6v-2.6h0.7v2.6C14.3 30.9 13.6 31.1 13.1 31.1zM10.2 31.2c-0.9 0-1.2-0.6-1.2-1.3h0.6c0 0.3 0.2 0.7 0.6 0.7 0.3 0 0.5-0.2 0.5-0.4 0-0.2-0.2-0.3-0.9-0.7C9.4 29.1 9 28.8 9 28.2c0-0.6 0.4-1 1.2-1 0.9 0 1.2 0.5 1.2 1.2h-0.7c0-0.3-0.2-0.6-0.5-0.6 -0.3 0-0.5 0.1-0.5 0.4 0 0.3 0.2 0.4 0.7 0.7 0.6 0.3 1 0.6 1 1.2C11.5 30.8 10.9 31.2 10.2 31.2zM8.2 27.8v3.2H7.5v-3.2H6.7v-0.6H9v0.6H8.2zM5.7 31.1v-3.8h0.7v3.8H5.7zM4.4 31.1v-2.5l-0.8 1.8 -0.8-1.8v2.5H2.1v-3.8h0.7L3.5 29l0.8-1.7h0.7v3.8H4.4z"/><polygon points="0 25.2 9.2 25.2 13.6 17 4.4 17 "/><polygon points="13.8 1.2 18.4 9.2 13.6 17 9 9.2 "/><polygon points="27.1 25.2 17.9 25.2 13.6 17 22.7 17 "/><rect x="36.1" width="0.6" height="38.3"/><path d="M20.4 19.1"/><path class="st0" d="M54 26.9c0-2.6-1.2-5-3.9-5 -2.3 0-4.2 2.3-4.2 6.5 0 4.7 1.6 6.5 4.2 6.5 2.6 0 3.8-2.1 3.9-4.9h-1.9c-0.3 2.3-0.9 3-2.1 3 -1.2 0-2.2-1.2-2.2-4.6 0-3.3 1.1-4.6 2.3-4.6 1.2 0 1.8 0.9 1.9 3.1H54zM57.9 34.6v-5.5h0l3.2 5.5h2.3l-3.1-5c1.7-0.3 2.6-1.7 2.6-3.6 0-2-1-4-3.5-4h-3.4v12.5H57.9zM57.8 23.9h1c1.2 0 2 0.4 2 2.1 0 1.4-0.7 1.8-1.9 1.8h-1.1V23.9z"/><polygon class="st0" points="70.5 34.6 70.5 32.7 66.5 32.7 66.5 29 70.5 29 70.5 27.1 66.5 27.1 66.5 23.9 70.4 23.9 70.4 22 64.6 22 64.6 34.6 "/><path class="st0" d="M72.4 34.6h3.3c2.8 0 4.6-2.3 4.6-6.3 0-3.5-1.4-6.3-4.1-6.3h-3.8V34.6zM74.4 23.9h1.4c1.5 0 2.6 1.2 2.6 4.4 0 3-1.1 4.4-2.6 4.4h-1.4V23.9z"/><rect x="82.2" y="22" class="st0" width="1.9" height="12.5"/><polygon class="st0" points="87.9 24 87.9 34.6 89.8 34.6 89.8 24 92.1 24 92.1 22 85.6 22 85.6 24 "/><path class="st0" d="M103.7 28.3c0 3.2-1 4.6-2.2 4.6 -1.2 0-2.2-1.3-2.2-4.6 0-3.2 1-4.6 2.2-4.6C102.6 23.7 103.7 25.1 103.7 28.3zM101.4 21.8c-2.5 0-4.2 2.5-4.2 6.5 0 4 1.7 6.5 4.2 6.5 2.5 0 4.2-2.5 4.2-6.5C105.6 24.3 103.9 21.8 101.4 21.8z"/><polygon class="st0" points="109.1 34.6 109.1 29 112.7 29 112.7 27.1 109.1 27.1 109.1 23.9 112.7 23.9 112.7 22 107.2 22 107.2 34.6 "/><path class="st0" d="M122.9 29.3h-2l1-4h0L122.9 29.3zM117.6 34.6h2l0.9-3.3h2.8l0.9 3.3h2L122.8 22h-1.7L117.6 34.6z"/><polygon class="st0" points="127.3 34.6 129.1 34.6 129.1 24.5 129.2 24.5 131.3 34.6 132.5 34.6 134.7 24.5 134.7 24.5 134.7 34.6 136.5 34.6 136.5 22 133.8 22 131.9 31.1 131.9 31.1 130 22 127.3 22 "/><polygon class="st0" points="144.5 34.6 144.5 32.7 140.6 32.7 140.6 29 144.5 29 144.5 27.1 140.6 27.1 140.6 23.9 144.4 23.9 144.4 22 138.6 22 138.6 34.6 "/><path class="st0" d="M148.4 34.6v-5.5h0l3.2 5.5h2.3l-3.1-5c1.7-0.3 2.6-1.7 2.6-3.6 0-2-1-4-3.5-4h-3.4v12.5H148.4zM148.4 23.9h1c1.2 0 2 0.4 2 2.1 0 1.4-0.7 1.8-1.9 1.8h-1.1V23.9z"/><rect x="155.3" y="22" class="st0" width="1.9" height="12.5"/><path class="st0" d="M167.2 26.9c0-2.6-1.2-5-3.9-5 -2.3 0-4.2 2.3-4.2 6.5 0 4.7 1.6 6.5 4.2 6.5 2.6 0 3.8-2.1 3.9-4.9h-1.9c-0.3 2.3-0.9 3-2.1 3 -1.2 0-2.2-1.2-2.2-4.6 0-3.3 1.1-4.6 2.3-4.6 1.2 0 1.8 0.9 1.9 3.1H167.2zM173.4 29.3h-2l1-4h0L173.4 29.3zM168.1 34.6h2l0.9-3.3h2.8l0.9 3.3h2L173.2 22h-1.7L168.1 34.6z"/><polygon class="st0" points="178.4 32.3 177.1 36.2 178.7 36.2 180.1 32.3 "/><rect x="186.7" y="22" class="st0" width="1.9" height="12.5"/><polygon class="st0" points="192.7 34.6 192.7 25.8 192.7 25.8 196.7 34.6 198.4 34.6 198.4 22 196.6 22 196.6 30.2 196.6 30.2 193 22 191 22 191 34.6 "/><path class="st0" d="M208.2 26.9c0-2.6-1.2-5-3.9-5 -2.3 0-4.2 2.3-4.2 6.5 0 4.7 1.6 6.5 4.2 6.5 2.6 0 3.8-2.1 3.9-4.9h-1.9c-0.3 2.3-0.9 3-2.1 3 -1.2 0-2.2-1.2-2.2-4.6 0-3.3 1.1-4.6 2.3-4.6 1.2 0 1.8 0.9 1.9 3.1H208.2z"/><rect x="210.3" y="32.3" class="st0" width="1.8" height="2.2"/><polygon class="st0" points="63.7 17.6 65.5 17.6 65.5 7.5 65.6 7.5 67.7 17.6 68.9 17.6 71.1 7.5 71.1 7.5 71.1 17.6 72.9 17.6 72.9 5.1 70.2 5.1 68.3 14.2 68.3 14.2 66.4 5.1 63.7 5.1 "/><rect x="75.5" y="5.1" class="st0" width="1.9" height="12.5"/><polygon class="st0" points="81.2 7.1 81.2 17.6 83.1 17.6 83.1 7.1 85.4 7.1 85.4 5.1 78.9 5.1 78.9 7.1 "/><path class="st0" d="M85.9 13.7c0 2.3 1.2 4.1 3.4 4.1 2.1 0 3.4-1.5 3.4-3.8 0-4.8-4.8-3-4.8-5.6 0-0.9 0.5-1.6 1.3-1.6 0.9 0 1.4 0.8 1.5 1.8h1.8c-0.1-2.1-1.1-3.7-3.2-3.7 -1.8 0-3.2 1.3-3.2 3.4 0 4.8 4.8 2.9 4.8 5.9 0 1-0.7 1.8-1.6 1.8 -1.2 0-1.5-1-1.7-2.2H85.9zM94.3 5.1v9.2c0 1.9 1.2 3.6 3.8 3.6s3.8-1.7 3.8-3.6V5.1h-1.9v8.6c0 1.5-0.5 2.1-1.8 2.1 -1.3 0-1.8-0.7-1.8-2.1V5.1H94.3zM103.9 17.6h3.9c1.7 0 3.1-1.5 3.1-3.7 0-1.5-0.6-2.8-2-3.1v0c0.9-0.1 1.5-1.3 1.5-2.3 0-2.2-1.4-3.4-3.3-3.5h-3.2V17.6zM105.8 12h1c1.5 0 2.1 0.7 2.1 1.9 0 1.3-0.5 1.9-2.1 1.9h-1V12zM105.8 7h1.1c1 0 1.6 0.6 1.6 1.6 0 1-0.4 1.6-1.6 1.6h-1.1V7z"/><rect x="112.8" y="5.1" class="st0" width="1.9" height="12.5"/><path class="st0" d="M116.4 13.7c0 2.3 1.2 4.1 3.4 4.1 2.1 0 3.4-1.5 3.4-3.8 0-4.8-4.8-3-4.8-5.6 0-0.9 0.5-1.6 1.3-1.6 0.9 0 1.4 0.8 1.5 1.8h1.8c-0.1-2.1-1.1-3.7-3.2-3.7 -1.8 0-3.2 1.3-3.2 3.4 0 4.8 4.8 2.9 4.8 5.9 0 1-0.7 1.8-1.6 1.8 -1.2 0-1.5-1-1.6-2.2H116.4z"/><polygon class="st0" points="124.8 17.6 126.8 17.6 126.8 12 130.4 12 130.4 17.6 132.3 17.6 132.3 5.1 130.4 5.1 130.4 10.1 126.8 10.1 126.8 5.1 124.8 5.1 "/><rect x="134.6" y="5.1" class="st0" width="1.9" height="12.5"/><polygon class="st0" points="143.1 17.6 145 17.6 145 7.5 145 7.5 147.1 17.6 148.3 17.6 150.5 7.5 150.5 7.5 150.5 17.6 152.3 17.6 152.3 5.1 149.6 5.1 147.7 14.2 147.7 14.2 145.9 5.1 143.1 5.1 "/><path class="st0" d="M160.4 11.4c0 3.2-1 4.6-2.2 4.6 -1.2 0-2.2-1.3-2.2-4.6 0-3.2 1-4.6 2.2-4.6C159.4 6.8 160.4 8.1 160.4 11.4zM158.2 4.9c-2.5 0-4.2 2.5-4.2 6.5 0 4 1.7 6.5 4.2 6.5 2.5 0 4.2-2.5 4.2-6.5C162.3 7.3 160.6 4.9 158.2 4.9z"/><polygon class="st0" points="165.5 7.1 165.5 17.6 167.4 17.6 167.4 7.1 169.7 7.1 169.7 5.1 163.2 5.1 163.2 7.1 "/><path class="st0" d="M176.9 11.4c0 3.2-1 4.6-2.2 4.6 -1.2 0-2.2-1.3-2.2-4.6 0-3.2 1-4.6 2.2-4.6C175.9 6.8 176.9 8.1 176.9 11.4zM174.7 4.9c-2.5 0-4.2 2.5-4.2 6.5 0 4 1.7 6.5 4.2 6.5 2.5 0 4.2-2.5 4.2-6.5C178.9 7.3 177.1 4.9 174.7 4.9zM182.5 17.6v-5.5h0l3.2 5.5h2.3l-3.1-5c1.7-0.3 2.6-1.7 2.6-3.6 0-2-1-4-3.5-4h-3.4v12.5H182.5zM182.5 7h1c1.2 0 2 0.4 2 2.1 0 1.4-0.7 1.8-1.9 1.8h-1.1V7zM188.6 13.7c0 2.3 1.2 4.1 3.4 4.1 2.1 0 3.4-1.5 3.4-3.8 0-4.8-4.8-3-4.8-5.6 0-0.9 0.5-1.6 1.3-1.6 0.9 0 1.4 0.8 1.5 1.8h1.8c-0.1-2.1-1.1-3.7-3.2-3.7 -1.8 0-3.2 1.3-3.2 3.4 0 4.8 4.8 2.9 4.8 5.9 0 1-0.7 1.8-1.6 1.8 -1.2 0-1.5-1-1.6-2.2H188.6z"/></svg>